# xmcd
#
# Track frame offsets:
#	150
#	51750
#	84009
#	94996
#	147196
#	174346
#
# Disc length: 2843 seconds
#
# Revision: 1
# Processed by: cddbd v1.5.2PL0 Copyright (c) Steve Scherf et al.
# Submitted via: audiograbber 1.83.01
#
DISCID=410b1906
DTITLE=Smegma - Mirage
DYEAR=2010
DGENRE=Avantgarde
TTITLE0=World of My Own
TTITLE1=Mirage
TTITLE2=F-85 Turbo Rocket
TTITLE3=Oh Yeh
TTITLE4=That Part of Wales
TTITLE5=Quiet on the Set Rioux! (March 16, 1974)
EXTD=
EXTT0=
EXTT1=
EXTT2=
EXTT3=
EXTT4=
EXTT5=
PLAYORDER=
